<svg width="45" height="45" viewBox="0 0 45 45" fill="none" xmlns="http://www.w3.org/2000/svg">
<path fill-rule="evenodd" clip-rule="evenodd" d="M22.4873 0.0219727C10.0679 0.0219727 0 10.0899 0 22.5093C0 34.9286 10.0679 44.9965 22.4873 44.9965C34.9067 44.9965 44.9746 34.9286 44.9746 22.5093C44.9746 10.0899 34.9067 0.0219727 22.4873 0.0219727ZM21.861 19.078L21.8138 18.2999C21.6722 16.2832 22.9149 14.4411 24.881 13.7265C25.6046 13.4725 26.8315 13.4407 27.6337 13.663C27.9483 13.7583 28.546 14.0759 28.9707 14.3617L29.7414 14.8858L30.5908 14.6158C31.0627 14.4729 31.6919 14.2347 31.975 14.0759C32.2424 13.933 32.4783 13.8536 32.4783 13.9012C32.4783 14.1712 31.8963 15.0922 31.4087 15.6003C30.7481 16.3149 30.9368 16.3785 32.2738 15.9021C33.076 15.6321 33.0918 15.6321 32.9345 15.9338C32.8401 16.0926 32.3525 16.6484 31.8334 17.1566C30.9526 18.03 30.9054 18.1252 30.9054 18.8557C30.9054 19.9832 30.3706 22.3334 29.8358 23.6197C28.8448 26.0334 26.7214 28.5265 24.5979 29.781C21.6093 31.5437 17.6298 31.9883 14.2794 30.9561C13.1626 30.6068 11.2436 29.7175 11.2436 29.5587C11.2436 29.5111 11.8256 29.4475 12.5335 29.4317C14.012 29.3999 15.4906 28.987 16.7489 28.2566L17.5983 27.7484L16.6231 27.4149C15.2389 26.9385 13.9963 25.8428 13.6817 24.8106C13.5873 24.4772 13.6188 24.4613 14.4996 24.4613L15.4119 24.4454L14.6412 24.0802C13.7289 23.6197 12.8952 22.8415 12.4863 22.0476C12.1874 21.4759 11.8099 20.0308 11.92 19.9197C11.9515 19.872 12.2818 19.9673 12.6593 20.0943C13.7446 20.4913 13.8862 20.3961 13.257 19.7291C12.0773 18.5222 11.7155 16.7278 12.2818 15.0287L12.5492 14.2664L13.5873 15.2986C15.7108 17.3789 18.2118 18.6175 21.0745 18.9827L21.861 19.078Z" fill="white"/>
</svg>
