<svg width="273" height="685" viewBox="0 0 273 685" fill="none" xmlns="http://www.w3.org/2000/svg">
<path d="M143.431 642.37C126.472 665.71 89.12 680.006 55.4541 674.405C14.933 667.663 22.3196 598.37 24.5481 546.504C27.5954 475.578 95.0907 498.131 77.2488 441.471C59.4069 384.812 97.6665 353.189 77.2488 313.801C56.8311 274.413 44.164 312.634 31.0885 274.59C18.013 236.546 -3.00069 222.133 47.7164 228.669C88.2901 233.897 51.2292 152.444 43.7669 122.179C41.0346 111.098 91.3268 83.3788 121.44 85.0126C151.553 86.6464 135.11 137.525 137.289 150.596C139.468 163.666 167.997 221.551 210.591 232.988C253.186 244.425 290.221 343.153 264.466 413.93C248.539 457.701 213.947 437.503 251.799 487.859C270.66 512.952 246.45 576.084 202.469 574.45C158.487 572.816 164.629 613.195 143.431 642.37Z" fill="#A547C9"/>
<path fill-rule="evenodd" clip-rule="evenodd" d="M92.7635 49.9604C104.511 56.9529 118.522 52.1569 124.058 39.2482C129.594 26.3396 124.559 10.2065 112.811 3.21399C101.064 -3.7785 87.053 1.01752 81.517 13.9262C75.9809 26.8349 81.0162 42.968 92.7635 49.9604ZM160.99 161.652C168.287 132.39 161.282 103.268 142.764 92.2453C124.133 81.1554 99.8971 91.9872 84.2396 116.583C83.9466 116.397 83.6509 116.215 83.3523 116.038C62.2193 103.458 35.0408 116.688 22.6473 145.586C10.2539 174.485 17.3387 208.109 38.4716 220.688C53.7481 229.781 72.1837 225.388 85.9099 211.339C87.3027 212.511 88.7787 213.566 90.336 214.493C96.5021 218.164 103.282 219.433 110.162 218.597C106.487 223.46 103.1 228.879 100.098 234.797C91.0425 226.577 77.3616 225.933 66.0877 234.278C52.0248 244.687 47.0324 265.141 54.937 279.963C61.4867 292.244 74.8358 296.805 87.2198 292.086C88.152 315.616 97.1098 335.827 112.933 345.245C114.872 346.4 116.861 347.36 118.889 348.133C116.787 350.142 114.733 352.287 112.736 354.565C84.6276 386.631 78.5725 432.981 99.211 458.09C110.027 471.249 126.027 475.964 142.853 472.855C141.228 478.623 140.269 484.478 139.934 490.28C129.36 484.795 117.881 486.08 110.904 494.704C101.389 506.465 103.846 527.419 116.393 541.508C116.676 541.826 116.961 542.137 117.25 542.443C116.243 544.67 115.399 546.941 114.727 549.227C92.6823 524.94 57.6032 521.649 30.5264 543.439C-0.601896 568.49 -9.3663 617.203 10.9506 652.243C31.2674 687.283 72.972 695.381 104.1 670.33C126.745 652.107 137.555 621.361 133.943 592.467C144.43 595.231 157.139 592.288 168.234 583.359C176.589 576.635 182.592 567.673 185.744 558.313C209.03 561.478 232.857 545.501 243.305 517.386C255.268 485.197 245.409 448.617 221.347 432.864C222.239 429.068 222.43 424.957 221.947 420.773C250.398 418.42 273.001 381.832 273.001 337.042C273.001 290.733 248.838 253.191 219.031 253.191C213.389 253.191 207.949 254.536 202.837 257.031C203.877 230.411 195.042 206.759 177.877 196.022C178.051 181.394 172.904 168.573 163.255 162.83C162.512 162.387 161.756 161.995 160.99 161.652ZM250.061 211.556C244.525 224.464 227.84 227.669 212.795 218.714C197.75 209.758 190.042 192.034 195.578 179.125C201.114 166.216 217.798 163.012 232.843 171.967C247.888 180.923 255.597 198.647 250.061 211.556Z" fill="url(#paint0_radial_2_2293)"/>
<defs>
<radialGradient id="paint0_radial_2_2293" cx="0" cy="0" r="1" gradientUnits="userSpaceOnUse" gradientTransform="translate(52.6383 425.391) rotate(55.6976) scale(195.837 106.89)">
<stop stop-color="#B776E8"/>
<stop offset="1" stop-color="#BF5AC9"/>
</radialGradient>
</defs>
</svg>
