<svg width="20" height="16" viewBox="0 0 20 16" fill="none" xmlns="http://www.w3.org/2000/svg">
<path d="M18.8507 0.00180319C16.9378 0.109022 13.1468 0.502157 10.8166 1.96748C10.6427 2.0747 10.5383 2.2534 10.5383 2.4321V15.4413C10.5383 15.8702 10.9905 16.1204 11.373 15.9417C13.7728 14.6908 17.2508 14.3334 18.9551 14.2619C19.5463 14.2262 19.9985 13.7258 19.9985 13.154V1.07399C20.0332 0.466418 19.4768 -0.0339364 18.8507 0.00180319ZM9.1819 1.96748C6.85164 0.502157 3.06063 0.109022 1.14774 0.00180319C0.521699 -0.0339364 0 0.466418 0 1.07399V13.154C0 13.7258 0.452139 14.2262 1.0434 14.2619C2.74761 14.3334 6.22561 14.6908 8.62542 15.9417C9.008 16.1204 9.46014 15.8702 9.46014 15.4413V2.4321C9.46014 2.2534 9.3558 2.0747 9.1819 1.96748Z" fill="#FBB551"/>
</svg>
