
<svg width="32" height="32" viewBox="0 0 32 32" fill="none" xmlns="http://www.w3.org/2000/svg">
<path fill-rule="evenodd" clip-rule="evenodd" d="M15.5478 0C6.961 0 0 6.961 0 15.5478C0 24.1347 6.961 31.0957 15.5478 31.0957C24.1347 31.0957 31.0957 24.1347 31.0957 15.5478C31.0957 6.961 24.1347 0 15.5478 0ZM12.1294 7.30575C13.0139 7.2655 13.2966 7.25565 15.5486 7.25565H15.546C17.7987 7.25565 18.0803 7.2655 18.9648 7.30575C19.8476 7.34618 20.4505 7.48593 20.9792 7.691C21.5251 7.90262 21.9863 8.18594 22.4476 8.6472C22.9088 9.10811 23.1922 9.57075 23.4047 10.1161C23.6085 10.6434 23.7484 11.246 23.7899 12.1287C23.8296 13.0132 23.84 13.2959 23.84 15.5479C23.84 17.7999 23.8296 18.0819 23.7899 18.9664C23.7484 19.8488 23.6085 20.4516 23.4047 20.979C23.1922 21.5242 22.9088 21.9868 22.4476 22.4478C21.9869 22.909 21.5249 23.193 20.9797 23.4048C20.4521 23.6099 19.8488 23.7496 18.9661 23.7901C18.0815 23.8303 17.7998 23.8402 15.5476 23.8402C13.2957 23.8402 13.0132 23.8303 12.1287 23.7901C11.2461 23.7496 10.6434 23.6099 10.1158 23.4048C9.57075 23.193 9.10811 22.909 8.64737 22.4478C8.18629 21.9868 7.90297 21.5242 7.691 20.9788C7.48611 20.4516 7.34635 19.849 7.30575 18.9662C7.26567 18.0817 7.25565 17.7999 7.25565 15.5479C7.25565 13.2959 7.26602 13.0131 7.30558 12.1286C7.34531 11.2461 7.48524 10.6434 7.69082 10.116C7.90331 9.57075 8.18663 9.10811 8.64789 8.6472C9.1088 8.18611 9.57144 7.90279 10.1168 7.691C10.6441 7.48593 11.2466 7.34618 12.1294 7.30575Z" fill="white"/>
<path fill-rule="evenodd" clip-rule="evenodd" d="M14.8045 8.75012C14.949 8.74989 15.1044 8.74996 15.272 8.75004L15.5484 8.75012C17.7624 8.75012 18.0249 8.75807 18.8992 8.7978C19.7077 8.83477 20.1465 8.96986 20.4388 9.08337C20.8257 9.23366 21.1016 9.41333 21.3917 9.70356C21.6819 9.99379 21.8616 10.2702 22.0122 10.6572C22.1257 10.9491 22.261 11.3879 22.2978 12.1964C22.3375 13.0706 22.3462 13.3331 22.3462 15.5461C22.3462 17.7591 22.3375 18.0217 22.2978 18.8959C22.2608 19.7044 22.1257 20.1432 22.0122 20.4351C21.8619 20.8221 21.6819 21.0976 21.3917 21.3877C21.1015 21.6779 20.8259 21.8576 20.4388 22.0079C20.1468 22.1219 19.7077 22.2567 18.8992 22.2936C18.025 22.3334 17.7624 22.342 15.5484 22.342C13.3342 22.342 13.0718 22.3334 12.1976 22.2936C11.3892 22.2563 10.9504 22.1212 10.6579 22.0077C10.2709 21.8574 9.9945 21.6778 9.70427 21.3875C9.41404 21.0973 9.23438 20.8216 9.08373 20.4344C8.97023 20.1425 8.83497 19.7037 8.79817 18.8952C8.75844 18.021 8.75049 17.7585 8.75049 15.5441C8.75049 13.3297 8.75844 13.0685 8.79817 12.1943C8.83514 11.3858 8.97023 10.9471 9.08373 10.6547C9.23403 10.2678 9.41404 9.99137 9.70427 9.70114C9.9945 9.41091 10.2709 9.23124 10.6579 9.0806C10.9502 8.96658 11.3892 8.83183 12.1976 8.79469C12.9626 8.76014 13.2591 8.74977 14.8045 8.74805V8.75012ZM19.9748 10.127C19.4254 10.127 18.9797 10.5722 18.9797 11.1217C18.9797 11.6711 19.4254 12.1168 19.9748 12.1168C20.5241 12.1168 20.9698 11.6711 20.9698 11.1217C20.9698 10.5723 20.5241 10.1266 19.9748 10.1266V10.127ZM11.29 15.548C11.29 13.1964 13.1966 11.2897 15.5482 11.2896C17.9 11.2896 19.8061 13.1963 19.8061 15.548C19.8061 17.8998 17.9001 19.8056 15.5484 19.8056C13.1967 19.8056 11.29 17.8998 11.29 15.548Z" fill="white"/>
<path d="M15.5488 12.7842C17.0752 12.7842 18.3128 14.0216 18.3128 15.5483C18.3128 17.0747 17.0752 18.3124 15.5488 18.3124C14.0221 18.3124 12.7847 17.0747 12.7847 15.5483C12.7847 14.0216 14.0221 12.7842 15.5488 12.7842Z" fill="white"/>
</svg>
