<svg width="135" height="1598" viewBox="0 0 135 1598" fill="none" xmlns="http://www.w3.org/2000/svg">
<path d="M77.1262 5.86734L75.704 8.77093C75.4459 9.29797 75.3168 9.56149 75.2675 9.83719C75.2237 10.0814 75.2258 10.3316 75.2736 10.575C75.3276 10.8498 75.461 11.1111 75.7279 11.6338L77.1501 14.4189C78.07 16.2204 78.5299 17.1211 79.1491 17.4122C79.6881 17.6656 80.3119 17.6656 80.8509 17.4122C81.4701 17.1211 81.93 16.2204 82.8499 14.4189L84.2721 11.6338C84.539 11.1111 84.6724 10.8498 84.7264 10.575C84.7742 10.3316 84.7763 10.0814 84.7325 9.83719C84.6832 9.56149 84.5541 9.29797 84.296 8.77094L82.8738 5.86734C81.9514 3.98419 81.4903 3.04262 80.863 2.74258C80.3173 2.48157 79.6827 2.48157 79.137 2.74258C78.5097 3.04262 78.0486 3.98419 77.1262 5.86734Z" fill="#FFE39D" stroke="#FFE39D" stroke-width="2"/>
<path d="M77.1262 1430.87L75.704 1433.77C75.4459 1434.3 75.3168 1434.56 75.2675 1434.84C75.2237 1435.08 75.2258 1435.33 75.2736 1435.57C75.3276 1435.85 75.461 1436.11 75.7279 1436.63L77.1501 1439.42C78.07 1441.22 78.5299 1442.12 79.1491 1442.41C79.6881 1442.67 80.3119 1442.67 80.8509 1442.41C81.4701 1442.12 81.93 1441.22 82.8499 1439.42L84.2721 1436.63C84.539 1436.11 84.6724 1435.85 84.7264 1435.57C84.7742 1435.33 84.7763 1435.08 84.7325 1434.84C84.6832 1434.56 84.5541 1434.3 84.296 1433.77L82.8738 1430.87C81.9514 1428.98 81.4903 1428.04 80.863 1427.74C80.3173 1427.48 79.6827 1427.48 79.137 1427.74C78.5097 1428.04 78.0486 1428.98 77.1262 1430.87Z" fill="#FFE39D" stroke="#FFE39D" stroke-width="2"/>
<path d="M121.126 214.867L119.704 217.771C119.446 218.298 119.317 218.561 119.267 218.837C119.224 219.081 119.226 219.332 119.274 219.575C119.328 219.85 119.461 220.111 119.728 220.634L121.15 223.419C122.07 225.22 122.53 226.121 123.149 226.412C123.688 226.666 124.312 226.666 124.851 226.412C125.47 226.121 125.93 225.22 126.85 223.419L128.272 220.634C128.539 220.111 128.672 219.85 128.726 219.575C128.774 219.332 128.776 219.081 128.733 218.837C128.683 218.561 128.554 218.298 128.296 217.771L126.874 214.867C125.951 212.984 125.49 212.043 124.863 211.743C124.317 211.482 123.683 211.482 123.137 211.743C122.51 212.043 122.049 212.984 121.126 214.867Z" fill="#FFE39D" stroke="#FFE39D" stroke-width="2"/>
<path d="M38.1262 952.867L36.704 955.771C36.4459 956.298 36.3168 956.561 36.2675 956.837C36.2237 957.081 36.2258 957.332 36.2736 957.575C36.3276 957.85 36.461 958.111 36.7279 958.634L38.1501 961.419C39.07 963.22 39.5299 964.121 40.1491 964.412C40.6881 964.666 41.3119 964.666 41.8509 964.412C42.4701 964.121 42.93 963.22 43.8499 961.419L45.2721 958.634C45.539 958.111 45.6724 957.85 45.7264 957.575C45.7742 957.332 45.7763 957.081 45.7325 956.837C45.6832 956.561 45.5541 956.298 45.296 955.771L43.8738 952.867C42.9514 950.984 42.4903 950.043 41.863 949.743C41.3173 949.482 40.6827 949.482 40.137 949.743C39.5097 950.043 39.0486 950.984 38.1262 952.867Z" fill="#FFE39D" stroke="#FFE39D" stroke-width="2"/>
<path d="M47.1262 418.867L45.704 421.771C45.4459 422.298 45.3168 422.561 45.2675 422.837C45.2237 423.081 45.2258 423.332 45.2736 423.575C45.3276 423.85 45.461 424.111 45.7279 424.634L47.1501 427.419C48.07 429.22 48.5299 430.121 49.1491 430.412C49.6881 430.666 50.3119 430.666 50.8509 430.412C51.4701 430.121 51.93 429.22 52.8499 427.419L54.2721 424.634C54.539 424.111 54.6724 423.85 54.7264 423.575C54.7742 423.332 54.7763 423.081 54.7325 422.837C54.6832 422.561 54.5541 422.298 54.296 421.771L52.8738 418.867C51.9514 416.984 51.4903 416.043 50.863 415.743C50.3173 415.482 49.6827 415.482 49.137 415.743C48.5097 416.043 48.0486 416.984 47.1262 418.867Z" fill="#FFE39D" stroke="#FFE39D" stroke-width="2"/>
<path d="M10.1262 1185.87L8.70403 1188.77C8.44589 1189.3 8.31682 1189.56 8.26746 1189.84C8.22373 1190.08 8.22582 1190.33 8.27361 1190.57C8.32756 1190.85 8.46101 1191.11 8.7279 1191.63L10.1501 1194.42C11.07 1196.22 11.5299 1197.12 12.1491 1197.41C12.6881 1197.67 13.3119 1197.67 13.8509 1197.41C14.4701 1197.12 14.93 1196.22 15.8499 1194.42L17.2721 1191.63C17.539 1191.11 17.6724 1190.85 17.7264 1190.57C17.7742 1190.33 17.7763 1190.08 17.7325 1189.84C17.6832 1189.56 17.5541 1189.3 17.296 1188.77L15.8738 1185.87C14.9514 1183.98 14.4903 1183.04 13.863 1182.74C13.3173 1182.48 12.6827 1182.48 12.137 1182.74C11.5097 1183.04 11.0486 1183.98 10.1262 1185.87Z" fill="#FFE39D" stroke="#FFE39D" stroke-width="2"/>
<path d="M13.1262 591.867L11.704 594.771C11.4459 595.298 11.3168 595.561 11.2675 595.837C11.2237 596.081 11.2258 596.332 11.2736 596.575C11.3276 596.85 11.461 597.111 11.7279 597.634L13.1501 600.419C14.07 602.22 14.5299 603.121 15.1491 603.412C15.6881 603.666 16.3119 603.666 16.8509 603.412C17.4701 603.121 17.93 602.22 18.8499 600.419L20.2721 597.634C20.539 597.111 20.6724 596.85 20.7264 596.575C20.7742 596.332 20.7763 596.081 20.7325 595.837C20.6832 595.561 20.5541 595.298 20.296 594.771L18.8738 591.867C17.9514 589.984 17.4903 589.043 16.863 588.743C16.3173 588.482 15.6827 588.482 15.137 588.743C14.5097 589.043 14.0486 589.984 13.1262 591.867Z" fill="#FFE39D" stroke="#FFE39D" stroke-width="2"/>
<path d="M79.9998 10C64.8331 22 40.4998 51.7398 40.4998 77C40.4998 108.5 54.5001 129.5 79.9998 149C105.5 168.5 123 206.5 124 221.5C125 236.5 134.991 265.183 123.999 294C105.5 342.5 75.7706 319.5 45 358.5C29.4066 378.264 53.6667 406.667 50 422.5C47.3335 444.333 11.5 458.5 30 521.5C40.514 557.304 26.0005 564 5.5 623C-4.85892 652.813 5.5 740.19 39.5 778.5C73.5001 816.81 134 805 134 870C134 905 53.1 939.5 31.5 967.5C4.49993 1002.5 5.72107 1024.6 24.5 1062.5C52 1118 25.0526 1160.69 12.5 1195.5C1.50024 1226 -2.49981 1366.5 24.5002 1391C51.5003 1415.5 81.5 1396.5 79 1440.5C76.5 1484.5 38.5 1549.5 79 1596.5" stroke="#FFE39D" stroke-width="2" stroke-dasharray="6 6"/>
</svg>
