<svg width="770" height="2657" viewBox="0 0 770 2657" fill="none" xmlns="http://www.w3.org/2000/svg">
<path d="M257 16C235 31.5 162 59 121.5 166C74.4929 290.192 162.455 396.737 313.5 377.5C419.5 364 426.14 297.415 540 272C617.501 254.701 703.499 275.5 747.5 377.5C791.501 479.5 766 661.5 653 775.5C579.004 858.496 497.009 831.003 399.516 868.494C399.505 868.498 399.51 868.496 399.499 868.5C399.158 868.625 254.569 921.712 313 1101C347.025 1205.4 166.501 1282 219 1405C271.499 1528 381.499 1468 458.501 1505C518.873 1534.01 515.499 1634.5 423.999 1701.5C322.567 1775.77 286.999 1771.5 197.499 1814.5C107.999 1857.5 47.3563 1913.7 33.9991 1982.5C7.49947 2119 -33.0011 2376 59.4987 2416.5C218.885 2486.29 359.994 2342.56 415 2429.5C477 2527.5 349 2593 423.999 2655.5" stroke="#FFE39D" stroke-width="3" stroke-dasharray="6 6"/>
<path d="M254.159 5.47758L248.78 15.8498C248.495 16.4 248.352 16.6752 248.298 16.9644C248.249 17.2205 248.252 17.4835 248.304 17.7387C248.364 18.027 248.511 18.2996 248.806 18.8449L254.185 28.7937C255.101 30.4873 255.559 31.3341 256.166 31.6128C256.696 31.8556 257.304 31.8556 257.834 31.6128C258.441 31.3341 258.899 30.4873 259.815 28.7937L265.194 18.8449C265.489 18.2996 265.636 18.027 265.696 17.7387C265.748 17.4835 265.751 17.2205 265.702 16.9644C265.648 16.6752 265.505 16.4 265.22 15.8497L259.841 5.47758C258.922 3.70578 258.462 2.81989 257.846 2.53215C257.31 2.28161 256.69 2.28161 256.154 2.53215C255.538 2.81989 255.078 3.70578 254.159 5.47758Z" fill="#FFE39D" stroke="#FFE39D" stroke-width="2"/>
<path d="M739.159 361.478L733.78 371.85C733.495 372.4 733.352 372.675 733.298 372.964C733.249 373.22 733.252 373.484 733.304 373.739C733.364 374.027 733.511 374.3 733.806 374.845L739.185 384.794C740.101 386.487 740.559 387.334 741.166 387.613C741.696 387.856 742.304 387.856 742.834 387.613C743.441 387.334 743.899 386.487 744.815 384.794L750.194 374.845C750.489 374.3 750.636 374.027 750.696 373.739C750.748 373.484 750.751 373.22 750.702 372.964C750.648 372.675 750.505 372.4 750.22 371.85L744.841 361.478C743.922 359.706 743.462 358.82 742.846 358.532C742.31 358.282 741.69 358.282 741.154 358.532C740.538 358.82 740.078 359.706 739.159 361.478Z" fill="#FFE39D" stroke="#FFE39D" stroke-width="2"/>
<path d="M654.159 764.478L648.78 774.85C648.495 775.4 648.352 775.675 648.298 775.964C648.249 776.22 648.252 776.484 648.304 776.739C648.364 777.027 648.511 777.3 648.806 777.845L654.185 787.794C655.101 789.487 655.559 790.334 656.166 790.613C656.696 790.856 657.304 790.856 657.834 790.613C658.441 790.334 658.899 789.487 659.815 787.794L665.194 777.845C665.489 777.3 665.636 777.027 665.696 776.739C665.748 776.484 665.751 776.22 665.702 775.964C665.648 775.675 665.505 775.4 665.22 774.85L659.841 764.478C658.922 762.706 658.462 761.82 657.846 761.532C657.31 761.282 656.69 761.282 656.154 761.532C655.538 761.82 655.078 762.706 654.159 764.478Z" fill="#FFE39D" stroke="#FFE39D" stroke-width="2"/>
<path d="M313.159 1092.48L307.78 1102.85C307.495 1103.4 307.352 1103.68 307.298 1103.96C307.249 1104.22 307.252 1104.48 307.304 1104.74C307.364 1105.03 307.511 1105.3 307.806 1105.84L313.185 1115.79C314.101 1117.49 314.559 1118.33 315.166 1118.61C315.696 1118.86 316.304 1118.86 316.834 1118.61C317.441 1118.33 317.899 1117.49 318.815 1115.79L324.194 1105.84C324.489 1105.3 324.636 1105.03 324.696 1104.74C324.748 1104.48 324.751 1104.22 324.702 1103.96C324.648 1103.68 324.505 1103.4 324.22 1102.85L318.841 1092.48C317.922 1090.71 317.462 1089.82 316.846 1089.53C316.31 1089.28 315.69 1089.28 315.154 1089.53C314.538 1089.82 314.078 1090.71 313.159 1092.48Z" fill="#FFE39D" stroke="#FFE39D" stroke-width="2"/>
<path d="M496.159 1556.48L490.78 1566.85C490.495 1567.4 490.352 1567.68 490.298 1567.96C490.249 1568.22 490.252 1568.48 490.304 1568.74C490.364 1569.03 490.511 1569.3 490.806 1569.84L496.185 1579.79C497.101 1581.49 497.559 1582.33 498.166 1582.61C498.696 1582.86 499.304 1582.86 499.834 1582.61C500.441 1582.33 500.899 1581.49 501.815 1579.79L507.194 1569.84C507.489 1569.3 507.636 1569.03 507.696 1568.74C507.748 1568.48 507.751 1568.22 507.702 1567.96C507.648 1567.68 507.505 1567.4 507.22 1566.85L501.841 1556.48C500.922 1554.71 500.462 1553.82 499.846 1553.53C499.31 1553.28 498.69 1553.28 498.154 1553.53C497.538 1553.82 497.078 1554.71 496.159 1556.48Z" fill="#4194C9" stroke="#FFE39D" stroke-width="2"/>
<path d="M27.1593 2007.48L21.7802 2017.85C21.4948 2018.4 21.3521 2018.68 21.2976 2018.96C21.2494 2019.22 21.2517 2019.48 21.3043 2019.74C21.3638 2020.03 21.5112 2020.3 21.806 2020.84L27.1851 2030.79C28.1008 2032.49 28.5586 2033.33 29.1662 2033.61C29.6955 2033.86 30.3045 2033.86 30.8338 2033.61C31.4414 2033.33 31.8992 2032.49 32.8149 2030.79L38.194 2020.84C38.4888 2020.3 38.6362 2020.03 38.6957 2019.74C38.7483 2019.48 38.7506 2019.22 38.7024 2018.96C38.6479 2018.68 38.5052 2018.4 38.2198 2017.85L32.8407 2007.48C31.9218 2005.71 31.4624 2004.82 30.8464 2004.53C30.3099 2004.28 29.6901 2004.28 29.1536 2004.53C28.5376 2004.82 28.0782 2005.71 27.1593 2007.48Z" fill="#3F9AC2" stroke="#FFE39D" stroke-width="2"/>
<path d="M425.159 2502.48L419.78 2512.85C419.495 2513.4 419.352 2513.68 419.298 2513.96C419.249 2514.22 419.252 2514.48 419.304 2514.74C419.364 2515.03 419.511 2515.3 419.806 2515.84L425.185 2525.79C426.101 2527.49 426.559 2528.33 427.166 2528.61C427.696 2528.86 428.304 2528.86 428.834 2528.61C429.441 2528.33 429.899 2527.49 430.815 2525.79L436.194 2515.84C436.489 2515.3 436.636 2515.03 436.696 2514.74C436.748 2514.48 436.751 2514.22 436.702 2513.96C436.648 2513.68 436.505 2513.4 436.22 2512.85L430.841 2502.48C429.922 2500.71 429.462 2499.82 428.846 2499.53C428.31 2499.28 427.69 2499.28 427.154 2499.53C426.538 2499.82 426.078 2500.71 425.159 2502.48Z" fill="#41ABC7" stroke="#FFE39D" stroke-width="2"/>
</svg>
