<svg width="33" height="32" viewBox="0 0 33 32" fill="none" xmlns="http://www.w3.org/2000/svg">
<path fill-rule="evenodd" clip-rule="evenodd" d="M16.0051 0C7.16573 0 0 6.961 0 15.5478C0 24.1347 7.16573 31.0957 16.0051 31.0957C24.8445 31.0957 32.0102 24.1347 32.0102 15.5478C32.0102 6.961 24.8445 0 16.0051 0ZM15.5593 13.1755L15.5258 12.6375C15.425 11.2431 16.3094 9.96948 17.7088 9.4754C18.2238 9.29973 19.097 9.27778 19.668 9.43149C19.8919 9.49736 20.3173 9.71695 20.6196 9.91458L21.1682 10.2769L21.7727 10.0903C22.1086 9.99144 22.5564 9.82675 22.7579 9.71695C22.9482 9.61814 23.1161 9.56324 23.1161 9.59618C23.1161 9.78283 22.7019 10.4196 22.3549 10.771C21.8847 11.265 22.019 11.309 22.9706 10.9796C23.5416 10.7929 23.5528 10.7929 23.4408 11.0015C23.3736 11.1113 23.0266 11.4956 22.6571 11.847C22.0302 12.4508 21.9966 12.5167 21.9966 13.0217C21.9966 13.8013 21.616 15.4262 21.2353 16.3156C20.53 17.9844 19.0187 19.7082 17.5073 20.5756C15.3802 21.7943 12.5478 22.1017 10.1632 21.388C9.36838 21.1465 8.00256 20.5316 8.00256 20.4219C8.00256 20.3889 8.41678 20.345 8.92057 20.334C9.97292 20.3121 11.0253 20.0266 11.9209 19.5215L12.5254 19.1702L11.8313 18.9396C10.8461 18.6103 9.96173 17.8527 9.73782 17.139C9.67065 16.9084 9.69304 16.8975 10.32 16.8975L10.9693 16.8865L10.4207 16.634C9.77141 16.3156 9.17806 15.7776 8.88698 15.2286C8.67427 14.8333 8.40559 13.8342 8.48395 13.7574C8.50634 13.7244 8.74144 13.7903 9.01013 13.8781C9.7826 14.1526 9.88336 14.0867 9.43555 13.6256C8.5959 12.7912 8.33841 11.5505 8.74144 10.3757L8.93176 9.8487L9.67065 10.5624C11.182 12.0007 12.9621 12.8571 14.9996 13.1096L15.5593 13.1755Z" fill="white"/>
</svg>
